<?xml version="1.0" encoding="utf-8"?>
<!-- Generator: Adobe Illustrator 22.0.1, SVG Export Plug-In . SVG Version: 6.00 Build 0)  -->
<svg version="1.1" id="Layer_1" xmlns="http://www.w3.org/2000/svg" xmlns:xlink="http://www.w3.org/1999/xlink" x="0px" y="0px"
	 viewBox="0 0 4907.4 1676.9" style="enable-background:new 0 0 4907.4 1676.9;" xml:space="preserve">
<style type="text/css">
	.st0{fill:#2A61AE;}
</style>
<g>
	<g>
		<polygon class="st0" points="356,591.7 512.6,682.2 638.3,754.7 795,845.2 920.6,917.7 937.8,907.9 1044,846.5 1046.3,845.2 
			1063.4,835.3 1169.7,774 1195.3,759.2 1321,686.6 1452.9,610.5 1452.9,465.3 1321,541.5 1195.3,614.1 1063.4,690.2 1044,701.4 
			937.8,762.8 920.6,772.6 764,682.2 638.3,609.6 481.6,519.2 356,446.6 		"/>
		<polygon class="st0" points="1623,693.1 1578.6,718.8 1452.9,791.4 1326.4,864.4 1321,867.5 1203,935.6 1200.7,937 1195.3,940.1 
			1077.3,1008.2 1063.4,1016.2 937.8,1088.8 898.1,1111.7 741.4,1021.2 615.7,948.7 459.1,858.2 333.4,785.7 201.1,709.3 
			176.7,695.2 75.4,636.7 75.4,753.7 75.4,781.8 75.4,934.6 75.4,1079.7 75.4,1279.7 201.1,1279.7 201.1,1287.5 201.1,1188.1 
			201.1,1007.2 201.1,862.1 207.7,858.2 333.4,930.8 490.1,1021.2 615.7,1093.8 772.4,1184.2 898.1,1256.8 937.8,1233.9 
			1023.7,1184.2 1063.4,1161.3 1195.3,1085.2 1203,1080.8 1321,1012.6 1326.4,1009.5 1328.6,1008.2 1452,937 1452.9,936.5 
			1578.6,863.9 1623,838.2 1623,1279.7 1748.7,1279.7 1748.7,765.7 1748.7,620.6 		"/>
		<polygon class="st0" points="761.7,538.4 887.4,610.9 937.8,581.8 1063.4,509.3 1195.3,433.1 1195.3,288 1063.4,364.2 
			937.8,436.7 		"/>
		<polygon class="st0" points="937.8,255.8 937.8,110.7 479.4,375.4 605,447.9 		"/>
	</g>
	<g>
		<path class="st0" d="M2086.1,1287.9V620.6h458.8v79h-375.4v204.2h333.6v79h-333.6v226.1h375.4v79H2086.1z"/>
		<path class="st0" d="M2749.9,1287.9V620.6h104.3l208.5,525.7l208.5-525.7h104.3v667.3H3292V787.4l-200.8,500.5H3033l-199.7-500.5
			v500.5H2749.9z"/>
		<path class="st0" d="M3583.7,1062.9h83.4c0,50.5,15.4,90.8,46.1,120.7c30,30.7,70.2,46.1,120.7,46.1s90.7-11.3,120.7-34
			c30.7-22.6,46.1-53,46.1-91.1c0-34.4-17.9-61.8-53.8-82.3c-26.3-14.6-64-26.3-113.1-35.1c-65.1-11.7-118.9-33.3-161.3-64.7
			c-48.3-36.6-72.4-81.6-72.4-135c0-54.1,21.2-97.7,63.7-130.6c42.4-32.9,99.1-49.4,170.1-49.4s127.7,19.4,170.1,58.2
			c42.4,38.8,63.7,90.4,63.7,154.8h-83.4c-7.3-41.7-24.5-75.4-51.6-101c-27.8-24.9-60.7-37.3-98.8-37.3c-45.4,0-81.9,9.5-109.7,28.5
			c-27.1,19-40.6,44.7-40.6,76.8c0,33.6,15.7,61.8,47.2,84.5c26.3,19.8,60.7,33.3,103.1,40.6c72.4,12.4,129.1,31.4,170.1,57
			c53.4,32.2,80.1,74.6,80.1,127.3c0,63-22.7,113.1-68.1,150.4c-46.1,38.1-106.8,57.1-182.2,57.1s-136.1-22-182.2-65.9
			C3606.4,1194.6,3583.7,1136.1,3583.7,1062.9z"/>
		<path class="st0" d="M4261.7,954.2c0-104.6,27.4-188.7,82.3-252.4c54.9-62.9,127.7-94.4,218.4-94.4c90.7,0,163.2,31.5,217.3,94.4
			c54.9,63.7,82.3,147.8,82.3,252.4c0,103.2-27.4,185.9-82.3,248.1c-54.1,62.2-126.6,93.3-217.3,93.3c-90.7,0-163.5-31.1-218.4-93.3
			C4289.1,1140.1,4261.7,1057.4,4261.7,954.2z M4345.1,954.2c0,80.5,19.8,145.3,59.3,194.3c39.5,48.3,92.2,72.4,158,72.4
			c65.1,0,117.4-24.1,157-72.4c39.5-49,59.2-113.7,59.2-194.3c0-82.7-19.8-148.5-59.2-197.5c-39.5-49.7-91.9-74.6-157-74.6
			c-65.9,0-118.5,24.9-158,74.6C4364.9,805.7,4345.1,871.6,4345.1,954.2z"/>
	</g>
	<g>
		<path class="st0" d="M2471.9,1566.4c-18.9-21-28.3-46.3-28.3-76s9.4-55.2,28.3-76.3c19.1-21,42-31.4,68.7-31.4
			c20.2,0,38.1,6,53.5,18c15.4,11.7,24.8,26.7,28,44.9h-13.8c-2.5-14.3-10.3-26.2-23.1-35.6c-12.7-9.4-27.5-14.2-44.5-14.2
			c-23,0-42.6,9.2-58.7,27.6c-16.3,18.7-24.5,41-24.5,67c0,26,8.2,48.4,24.5,67c16.1,18.4,35.7,27.6,58.7,27.6
			c19.6,0,36.3-7.5,50.1-22.4c13.8-14.7,20.7-32.7,20.7-53.8v-5.2h-70.8v-13.1h81.5v102.2h-10.7v-42.1
			c-5.1,14.3-14.2,25.6-27.3,34.2c-12.9,8.7-27.4,13.1-43.5,13.1C2513.9,1597.9,2491,1587.4,2471.9,1566.4z"/>
		<path class="st0" d="M2894.3,1592.7v-204.8h97.7c14,0,26,5.3,35.9,15.9c9.9,10.4,14.8,23.1,14.8,38c0,13.1-3,24.5-9,34.2
			c-6.2,9.6-14,15.3-23.1,16.9c8.5,2.3,15.4,9.5,20.7,21.7c5.3,12.2,7.9,26.9,7.9,44.2c0,9.7,0.2,16.9,0.7,21.8
			c0.5,5.7,1.4,9.8,2.8,12.1H3029c-2.3-2.8-3.8-7.8-4.5-15.2l-1-29.3c0-13.8-3.3-25.6-10-35.6c-6.4-9.6-14.4-14.5-23.8-14.5h-81.5
			v94.6H2894.3z M2989.6,1485.3c10.8,0,20.1-4.2,28-12.4c7.6-8.1,11.4-18,11.4-29.7c0-11.5-3.8-21.4-11.4-29.7
			c-7.8-8.1-17.2-12.1-28-12.1h-81.5v83.9H2989.6z"/>
		<path class="st0" d="M3329.1,1566.4c-16.6-19.1-24.8-44.4-24.8-76c0-32.7,8.3-58.8,24.8-78.4s38.7-29.3,66.3-29.3
			c27.6,0,49.7,9.8,66.3,29.3s24.9,45.7,24.9,78.4c0,31.5-8.3,56.8-24.9,76c-16.6,19.1-38.7,28.7-66.3,28.7
			C3367.8,1595.1,3345.7,1585.6,3329.1,1566.4z M3451.7,1557.1c14-16.6,21.1-38.8,21.1-66.6c0-28.5-7-51.5-21.1-68.7
			c-14-17.3-32.8-25.9-56.3-25.9c-23.5,0-42.3,8.6-56.3,25.9c-14,17.3-21.1,40.2-21.1,68.7c0,27.8,7,50,21.1,66.6
			c14,16.8,32.8,25.2,56.3,25.2C3418.9,1582.3,3437.7,1573.9,3451.7,1557.1z"/>
		<path class="st0" d="M3775,1577.1c-15-13.8-22.4-30.5-22.4-50.1v-139.2h13.8V1527c0,16.1,6.2,29.8,18.6,41.1
			c12.2,11.3,27.1,16.9,44.5,16.9c16.6,0,30.8-5.6,42.8-16.9c11.7-11.3,17.6-25,17.6-41.1v-139.2h13.8V1527
			c0,19.6-7.3,36.3-21.8,50.1c-14.5,13.8-32,20.7-52.5,20.7C3808.4,1597.9,3790.2,1590.9,3775,1577.1z"/>
		<path class="st0" d="M4180.8,1592.7v-204.8h92.5c13.3,0,24.6,5.4,33.8,16.2c9.4,10.9,14.2,23.9,14.2,39.1
			c0,15.9-4.7,29.5-14.2,40.7c-9.2,11.3-20.5,16.9-33.8,16.9h-78.7v91.9H4180.8z M4271,1487.7c10.1,0,18.8-4.2,25.9-12.4
			c7.1-8.1,10.7-18,10.7-29.7c0-12.2-3.6-22.7-10.7-31.4c-7.1-8.5-15.8-12.8-25.9-12.8h-76.3v86.3H4271z"/>
	</g>
</g>
</svg>
